<svg xmlns="http://www.w3.org/2000/svg" viewBox="0 0 500 500"><g id="freepik--background-complete--inject-105"><g><rect x="417.41" y="298.8" width="32.83" height="11.04" style="fill:#f0f0f0;"></rect><rect x="410.02" y="309.84" width="32.83" height="11.04" style="fill:#e6e6e6;"></rect></g><rect x="424.39" y="320.88" width="32.83" height="11.04" style="fill:#f0f0f0;"></rect><rect x="399.82" y="359.79" width="32.83" height="11.04" style="fill:#f0f0f0;"></rect><g><rect x="55.02" y="183.71" width="32.83" height="11.04" style="fill:#ebebeb;"></rect><rect x="47.62" y="194.75" width="32.83" height="11.04" style="fill:#e0e0e0;"></rect></g><rect x="68.56" y="272.23" width="32.83" height="11.04" style="fill:#ebebeb;"></rect><rect x="80.67" y="261.25" width="25.3" height="11.04" style="fill:#e0e0e0;"></rect><rect x="61.66" y="331.29" width="26.89" height="11.04" style="fill:#f0f0f0;"></rect><g><rect x="369.85" y="124.04" width="32.83" height="11.04" style="fill:#f0f0f0;"></rect><rect x="354.82" y="135.08" width="32.83" height="11.04" style="fill:#e6e6e6;"></rect></g><rect x="419.66" y="177.43" width="32.83" height="11.04" style="fill:#f0f0f0;"></rect><rect x="410.02" y="166.49" width="32.83" height="11.04" style="fill:#e6e6e6;"></rect><rect x="70.44" y="89.72" width="38.49" height="11.04" style="fill:#f0f0f0;"></rect><rect x="189.93" y="44.16" width="32.58" height="11.04" style="fill:#e0e0e0;"></rect><rect x="365.27" y="70.47" width="36.84" height="11.04" style="fill:#f0f0f0;"></rect><rect x="30.85" y="342.33" width="39.78" height="11.04" style="fill:#e0e0e0;"></rect><rect x="171.34" y="54.99" width="32.83" height="11.04" style="fill:#f0f0f0;"></rect><g><g><g><path d="M443.92,350.74h-180.75c-3.23,0-5.86-2.63-5.86-5.86V81.6c0-3.23,2.63-5.86,5.86-5.86h180.75c3.23,0,5.86,2.63,5.86,5.86V344.88c0,3.23-2.63,5.86-5.86,5.86ZM263.17,75.99c-3.09,0-5.61,2.52-5.61,5.61V344.88c0,3.09,2.52,5.61,5.61,5.61h180.75c3.09,0,5.61-2.52,5.61-5.61V81.6c0-3.09-2.52-5.61-5.61-5.61h-180.75Z" style="fill:#e0e0e0;"></path><path d="M235.49,350.74H54.75c-3.23,0-5.86-2.63-5.86-5.86V81.6c0-3.23,2.63-5.86,5.86-5.86H235.49c3.23,0,5.86,2.63,5.86,5.86V344.88c0,3.23-2.63,5.86-5.86,5.86ZM54.75,75.99c-3.09,0-5.61,2.52-5.61,5.61V344.88c0,3.09,2.52,5.61,5.61,5.61H235.49c3.09,0,5.61-2.52,5.61-5.61V81.6c0-3.09-2.52-5.61-5.61-5.61H54.75Z" style="fill:#e0e0e0;"></path></g><rect x="0" y="411.81" width="500" height=".25" style="fill:#e0e0e0;"></rect></g><rect x="51.67" y="426.07" width="16.06" height=".25" style="fill:#e0e0e0;"></rect><rect x="170.35" y="423.36" width="53.53" height=".25" style="fill:#e0e0e0;"></rect><rect x="68.73" y="435.36" width="36.25" height=".25" style="fill:#e0e0e0;"></rect><rect x="378.35" y="423.23" width="43.19" height=".25" style="fill:#e0e0e0;"></rect><rect x="430.45" y="423.23" width="6.33" height=".25" style="fill:#e0e0e0;"></rect><rect x="316.21" y="429.46" width="53.89" height=".25" style="fill:#e0e0e0;"></rect></g><path d="M116.33,417.83c.56-.56-.65-94.37,14.21-176.07,7.94-43.67,22.83-82.56,39.81-104.84,51.82-67.98,80.58-74.84,80.58-74.84,0,0,85.87,52.66,110.33,128.72,0,0,26.62,167.27,21.02,211.87l.77,11.4-266.73,3.75Z" style="fill:#ebebeb;"></path><path d="M321.55,123.36l-192.21,113.92-7.46,69.04,235.56-132.72s-25.59-44.72-35.89-50.24Z" style="fill:#f5f5f5;"></path><polygon points="118.92 336.52 363.16 203.05 367.44 232.17 117.63 370.09 118.92 336.52" style="fill:#f5f5f5;"></polygon><rect x="245.6" y="59.28" width="7.96" height="359.44" style="fill:#e0e0e0;"></rect><rect x="133.3" y="214.67" width="232.89" height="8.81" style="fill:#e0e0e0;"></rect><rect x="118.72" y="322.76" width="263.57" height="8.81" style="fill:#e0e0e0;"></rect></g><g id="freepik--Shadow--inject-105"><path d="M414.59,473.12c0,3.39-75.12,6.13-167.78,6.13s-167.78-2.75-167.78-6.13,75.12-6.13,167.78-6.13,167.78,2.75,167.78,6.13Z" style="fill:#f5f5f5;"></path></g><g id="freepik--Character--inject-105"><path d="M260.2,190.85c-3.09-2.71-7.85-2.18-11.57-3.92-1.8-.85-3.26-2.18-4.41-3.79,1.87,1.38,4.05,2.35,6.34,2.74,3.79,.64,7.82-.26,10.97-2.47-2.84,.54-5.7,1.08-8.59,.97-2.89-.11-5.83-.94-8.01-2.83-2.07-1.8-3.29-4.41-3.88-7.09-.15-.67-.26-1.34-.34-2.02l.02,.57c-.46-3.6-.52-7.25-1.19-10.82-.85-4.52-2.97-8.69-6.66-11.81l-8.13,8.28c-.44,8.09-2.54,16.04-2.75,24.14-.22,8.1,1.83,16.86,8.04,22.06,5.71,4.78,13.99,5.61,21.16,3.6,3.89-1.09,7.74-3.09,9.92-6.5,2.17-3.41,2.12-8.43-.92-11.1Z" style="fill:#263238;"></path><g><path d="M171.24,246.14l16.7-14.55,10.24-29.89,11.41,3.19s-9.49,28.7-10.65,30.9c-1.17,2.2-23.2,15.06-23.2,15.06l-4.49-4.71Z" style="fill:#b97964;"></path><g><path d="M168.21,247.45c-.39,.21-13.04,8.51-13.97,9.33-.79,.7-.46,2.04,2.25,.94s5.39-2.07,5.39-2.07l-4.97,4.1s.12,1.25,2.46,.24c2.33-1.01,4.87-3.21,4.87-3.21l-3.34,4.94s.52,1.04,2.28-.52c1.77-1.56,3.77-4.44,3.77-4.44,0,0-2.02,5.25-1.42,5.43,.6,.18,1.22-.45,2.5-2.5,.68-1.09,3.41-3.95,3.41-3.95,0,0,3.27-1.84,4.08-3.75,.81-1.9-1.07-7.52-1.07-7.52l-6.25,2.98Z" style="fill:#b97964;"></path><path d="M169.06,248.32c-.18,.04-6.19,4.73-6.47,5.01-.55,.57,.38,2.09,1.92,1.47,1.54-.62,2.72-1.75,2.72-1.75,0,0,4.14,.05,5.84-1.5,1.69-1.55,1.66-4.81,1.66-4.81l-5.68,1.57Z" style="opacity:.3;"></path><path d="M169.6,247.93c-.18,.04-6.68,5.27-6.9,5.6-.21,.33,.27,1.45,1.81,.83,1.54-.62,2.72-1.75,2.72-1.75,0,0,4.14,.05,5.84-1.5s1.66-4.81,1.66-4.81l-5.14,1.63Z" style="fill:#b97964;"></path></g></g><g><path d="M285.81,240.76l-18.7-11.88-14.61-28.01-10.8,4.86s13.69,26.95,15.17,28.95c1.48,2,25.2,11.4,25.2,11.4l3.73-5.33Z" style="fill:#b97964;"></path><path d="M289.01,241.6c.42,.15,14.17,6.45,15.21,7.12,.89,.57,.77,1.95-2.08,1.27s-5.64-1.24-5.64-1.24l5.53,3.3s.07,1.26-2.39,.61-5.3-2.44-5.3-2.44l4.04,4.39s-.35,1.11-2.33-.17c-1.98-1.28-4.4-3.83-4.4-3.83,0,0,2.79,4.89,2.22,5.16-.57,.27-1.28-.26-2.85-2.1-.84-.98-3.96-3.39-3.96-3.39,0,0-3.51-1.33-4.6-3.09s-.07-7.59-.07-7.59l6.62,2.01Z" style="fill:#b97964;"></path></g><g><path d="M193.11,216.51c2.87,.31,12.12,2.31,12.12,2.31,.59-2.07,4.07-9.15,4.07-9.15,4.56-7.7,6.11-14.48,1.14-18.14-1.49-1.1-4.42-.17-6.25,.1-2.22,.32-4.36,.93-5.55,2.35-3,3.56-3.87,4.9-6.14,10.14,0,3.64-.43,9.02,.62,12.39Z" style="fill:#407BFF;"></path><path d="M193.11,216.51c2.87,.31,12.12,2.31,12.12,2.31,.59-2.07,4.07-9.15,4.07-9.15,4.56-7.7,6.11-14.48,1.14-18.14-1.49-1.1-4.42-.17-6.25,.1-2.22,.32-4.36,.93-5.55,2.35-3,3.56-3.87,4.9-6.14,10.14,0,3.64-.43,9.02,.62,12.39Z" style="fill:#fff; opacity:.5;"></path></g><g><g><path d="M349.39,366.32c-.02-.08-.03-.18-.06-.26-.12-.43-.27-.87-.44-1.3-.12-.32-.26-.61-.41-.92-.1-.22-.22-.45-.34-.66-.1-.16-.19-.33-.27-.49-.2-.32-.41-.62-.64-.94-.15-.11-.28-.21-.43-.32-.12-.09-.26-.19-.39-.28h0c-17.26-12.69-51.62-37.97-83.5-83.24-1.58-2.23-3.15-4.51-4.7-6.84-4.14-6.21-6.85-10.29-9.47-28.49-13.34,3.02-33.21-9.27-43.6-.09-4.23,18.88-13.12,57.52-24.59,102.43-7.2,28.2-19.5,63.17-29.37,70.74h148.96c32.79-13.65,37.42-25.78,37.42-25.78,1.82-1.55,5.01-4.61,7.69-8.42,.33-.46,.64-.9,.91-1.35,.15-.23,.3-.46,.44-.69,2.4-3.97,3.95-8.56,2.78-13.1Z" style="fill:#407BFF;"></path><path d="M277.06,290.33c-11.41-1.79-23.15-7.18-33.27-12.92-10.12-5.74-17.19-12.88-21.25-21.9,5.31-7.87,11.17-13.97,19.74-17.64,.7-.3,2.82-.62,3.58-.59,.76,.03,1.06,.64,1.33,1.38,0,0,11.84,5.44,17.4,17.71,5.06,11.16,9.98,23.99,12.47,33.96Z" style="fill:#407BFF;"></path><path d="M277.06,290.33c-11.41-1.79-23.15-7.18-33.27-12.92-10.12-5.74-17.19-10.57-21.25-19.59,1.45-3.1,11.17-16.28,19.74-19.95,.7-.3,2.82-.62,3.58-.59,.76,.03,1.06,.64,1.33,1.38,0,0,11.84,5.44,17.4,17.71,5.06,11.16,9.98,23.99,12.47,33.96Z" style="fill:#fff; opacity:.4;"></path><path d="M222.14,261.61s-12.99,54.46-26.79,72.53c-7.58,9.92-18.03,24.04-18.03,24.04l9.29-37.09,35.53-59.47Z" style="opacity:.2;"></path><path d="M351.79,296.89c-.51-4.92-3.73-9-6.69-12.88-4.91-6.43-9.46-13.15-13.62-20.12-1.24,5.43-2.35,13.79,.05,18.79,1.98,4.12,6.09,3.92,9.96,6.18,3.87,2.26,7.92,4.15,10.3,8.03Z" style="fill:#407BFF;"></path><path d="M351.79,296.89c-.51-4.92-3.73-9-6.69-12.88-4.91-6.43-9.46-13.15-13.62-20.12-1.24,5.43-2.35,13.79,.05,18.79,1.98,4.12,6.09,3.92,9.96,6.18,3.87,2.26,7.92,4.15,10.3,8.03Z" style="opacity:.2;"></path><path d="M356.82,272.32h0c-.43,1.04-1.24,1.98-2.28,2.81-1.71,1.35-3.6,2.44-6.23,3.19-12.52-31.06-28.78-41.85-29.67-43.59,1.37,.74,13.06,6.23,15.44,8.43l.05,.05c8.54,7.95,21.3,22.65,22.57,25.44,.6,1.33,.59,2.56,.13,3.69Z" style="fill:#407BFF;"></path><path d="M356.82,272.32h0c-.43,1.04-1.24,1.98-2.28,2.81-1.71,1.35-3.6,2.44-6.23,3.19-12.52-31.06-28.78-41.85-29.67-43.59,1.37,.74,13.06,6.23,15.44,8.43l.05,.05c8.54,7.95,21.3,22.65,22.57,25.44,.6,1.33,.59,2.56,.13,3.69Z" style="opacity:.2;"></path><path d="M353.14,334.64c-.93-13.04-4.3-24.27-9.08-36.38,2.5,7.51-4.24,16.06-1.46,23.46,2.19,5.82,10.03,6.69,10.53,12.92Z" style="fill:#407BFF;"></path><path d="M353.14,334.64c-.93-13.04-4.3-24.27-9.08-36.38,2.5,7.51-4.24,16.06-1.46,23.46,2.19,5.82,10.03,6.69,10.53,12.92Z" style="opacity:.2;"></path><path d="M347.26,268.51s-.03-.01-.06-.01c-1.75-.2-3.59-.28-5.37-.05-.03,0-.06,.01-.08,.01-4.16,.55-7.97,2.76-9.58,8.85-.44,1.67-.33,2.95,.19,3.92,.03,.09,.08,.18,.14,.26,.06,.08,.1,.16,.17,.23,.01,.01,.02,.02,.02,.05,.09,.12,.18,.22,.28,.32,0,.01,.01,.01,.01,.02,.41,.47,.98,.93,1.67,1.37,6.2,4.04,22.04,7.44,15.53,16.97-4.43,6.48-6.89,10.92-7.74,14.3h0c-.11,.49-.2,.95-.26,1.4-.19,1.48-.07,2.72,.3,3.79,.09,.31,.2,.6,.34,.88,.66,1.39,1.71,2.47,2.9,3.43h0c3.99,3.29,9.49,5.35,6.72,13.52-.36,1.08-.81,2.12-1.29,3.15-.61,1.31-1.29,2.61-1.96,3.89-2.25,4.38-4.28,8.74-2.79,14.45,.07,.29,.16,.6,.25,.9,.26,.82,.74,1.67,1.23,2.54,.08,.16,.17,.33,.27,.49,.11,.21,.23,.43,.34,.66,.15,.31,.28,.6,.41,.92,.18,.42,.34,.86,.44,1.3,.02,.08,.03,.18,.06,.26,.08,.42-.74,.6-2.23,.54-7.64-.27-32.94-6.55-43.98-15.35-16.79-13.4-31.37-27.61-44.03-41.95h-.01c-14.26-16.15-26.13-32.47-36.07-47.97h0c-.18-.28-.35-.55-.52-.82l.37,.25s.03,.02,.06,.04c.47,.31,.93,.62,1.39,.94,.53,.36,1.06,.75,1.58,1.13,.79,.6,1.59,1.21,2.37,1.83,2.62,2.08,5.2,4.23,7.9,6.09,.43,.31,.86,.59,1.31,.87,1.22,.79,2.48,1.5,3.77,2.11,.17,.08,.34,.16,.5,.23,1.41,.62,2.86,1.13,4.39,1.47,6.52,1.44,12.04,2.11,16.73,2.19h.35c22.63,.27,25.45-13.4,26.03-20.67,.22-2.72,.48-5.54,.92-8.3,2.92-7.41,5.12-13.85,7.51-15.87,1.9-1.6,5.54-3.35,10.96-2.95,.32,.02,.62,.05,.94,.08,6.07,.7,14.22,4.06,24.47,12.95l.05,.05c.31,.26,.6,.53,.91,.8,.66,.59,1.33,1.2,2,1.83,.56,.52,1.11,1.06,1.68,1.61,.01,.02,.03,.04,.05,.05,.56,.54,1.11,1.1,1.67,1.65,.07,.08,.14,.14,.2,.21,.91,.92,1.84,1.88,2.76,2.89,.31,.33,.6,.66,.91,.97,.3,.33,.59,.65,.89,.97,.3,.33,.58,.65,.87,.97,2.96,3.35,6.06,7.11,9.3,11.35,.01,.02,.02,.04,.05,.06,.14,.18,.26,.35,.39,.53,.13,.18,.25,.35,.36,.54,.11,.18,.23,.35,.33,.54,.08,.15,.15,.28,.19,.41,.01,.02,.01,.04,.02,.05,.02,.04,.03,.08,.05,.12,.76,2.3-3.93,.39-9.48-.25Z" style="fill:#407BFF;"></path><path d="M356.82,272.32h0s-4.39-2.89-9.56-3.81c-.02,0-.03-.01-.06-.01-1.48-.26-3.01-.35-4.52-.16-.28,.02-.57,.06-.85,.12-.03,0-.06,.01-.08,.01-4.16,.55-7.97,2.76-9.58,8.85-.44,1.67-.33,2.95,.19,3.92-2.48-4.03-3.76-7.54-12.31-29.43-2.69-6.9-7.25-15.69-11.39-21.67,.32,.02,.62,.05,.94,.08,6.07,.7,14.22,4.06,24.47,12.95l.05,.05c.31,.26,.6,.53,.91,.8,.66,.59,1.33,1.2,2,1.83,.56,.53,1.12,1.07,1.68,1.61,.01,.02,.03,.04,.05,.05,.56,.54,1.11,1.1,1.67,1.65,.07,.08,.14,.14,.2,.21,.93,.95,1.85,1.91,2.76,2.89,.31,.33,.6,.66,.91,.97,.3,.33,.59,.65,.89,.97,.3,.33,.58,.65,.87,.97,4.01,4.47,7.45,8.74,9.3,11.35,.01,.02,.02,.04,.05,.06,.62,.89,1.07,1.58,1.27,2.02,.01,.02,.01,.04,.02,.05,.02,.04,.03,.08,.05,.12,.56,1.28,.53,2.48,.08,3.57Z" style="fill:#fff; opacity:.2;"></path><path d="M350.19,300.46c-4.64,6.33-6.95,10.88-7.74,14.3-.01,0,0,.01,0,.01-.12,.48-.2,.95-.26,1.39-2.09-16.33-2.42-21.34-7.53-32.67,6.2,4.04,22.04,7.44,15.53,16.97Z" style="fill:#fff; opacity:.2;"></path><path d="M352.44,337.77c-.36,1.08-.81,2.12-1.29,3.15-.26,.47-.52,.95-.78,1.42-.44,.81-.83,1.63-1.18,2.46-2.25,4.38-4.28,8.74-2.79,14.45-.01,.25,.35,.9,.34,1.15-4.12-11.22,.32-24.25-1.01-36.14,3.99,3.28,9.49,5.34,6.72,13.51Z" style="fill:#fff; opacity:.2;"></path><path d="M346.6,379.41c-.15,.23-.3,.46-.44,.69-.27,.45-.58,.89-.91,1.35,1.43-3.93,2.07-8.89,1.99-12.42-.02-.7-.05-1.44-.08-2.18-.07-1.88-.17-3.79-.36-5.42-.05-.45-.1-.88-.16-1.28,.26,.82,.74,1.67,1.23,2.54,.08,.16,.17,.33,.27,.49,.12,.21,.24,.43,.34,.66,.15,.31,.28,.6,.41,.92,.18,.42,.34,.86,.44,1.3,.02,.08,.03,.18,.06,.26,1.17,4.54-.39,9.13-2.78,13.1Z" style="opacity:.2;"></path><path d="M259.14,309.55c-9.64-4.69-28.77-27.78-33.6-40.39-.97-2.55-1.78-5.07-2.48-7.58-.05-.2-.1-.39-.15-.58,7.79,5.04,14.28,12.72,23.27,14.71,6.52,1.44,12.04,2.11,16.73,2.19,22.95,.41,28.21-39.26,34.8-44.84,1.9-1.6,5.54-3.35,10.96-2.95,6.28,25.67-2.16,102.5-49.53,79.43Z" style="fill:#263238;"></path><path d="M259.15,309.55h-.01c-9.64-4.7-28.77-27.78-33.6-40.39-.97-2.55-1.78-5.07-2.48-7.58h0c-.05-.21-.1-.39-.15-.58,.02,.01,.03,.02,.06,.04,.47,.31,.93,.62,1.39,.94,.53,.36,1.06,.75,1.58,1.13,.79,.6,1.59,1.21,2.37,1.83,2.62,2.08,5.2,4.23,7.9,6.09,.43,.31,.86,.59,1.31,.87,1.22,.79,2.48,1.5,3.77,2.11,.17,.08,.33,.16,.5,.23,1.41,.62,2.86,1.13,4.39,1.47,6.52,1.44,12.04,2.11,16.73,2.19h.35c14.44,0,21.8-15.96,26.95-28.97,2.92-7.41,5.12-13.85,7.51-15.87,1.9-1.6,5.54-3.35,10.96-2.95,6.28,25.67-2.16,102.48-49.52,79.43Z" style="fill:#407BFF;"></path><path d="M259.15,309.55h-.01c-9.64-4.7-28.77-27.78-33.6-40.39-.97-2.55-1.78-5.07-2.48-7.58h0c-.05-.21-.1-.39-.15-.58,.02,.01,.03,.02,.06,.04,.47,.31,.93,.62,1.39,.94,.53,.36,1.06,.75,1.58,1.13,.79,.6,1.59,1.21,2.37,1.83,2.62,2.08,5.2,4.23,7.9,6.09,.43,.31,.86,.59,1.31,.87,1.22,.79,2.48,1.5,3.77,2.11,.17,.08,.33,.16,.5,.23,1.41,.62,2.86,1.13,4.39,1.47,6.52,1.44,12.04,2.11,16.73,2.19h.35c14.44,0,21.8-15.96,26.95-28.97,2.92-7.41,5.12-13.85,7.51-15.87,1.9-1.6,5.54-3.35,10.96-2.95,6.28,25.67-2.16,102.48-49.52,79.43Z" style="fill:#fff; opacity:.5;"></path><path d="M314.54,274.99c-.22,8.74-1.24,17.59-4.42,25.69-3.18,8.11-8.72,15.46-16.27,19.4-12.54,6.54-28.39,2.37-39.3-6.76-9.53-7.98-15.99-19.09-21.32-30.59,7.88,11.36,19.2,23.55,25.91,26.82h.01c44.9,21.86,54.81-46.02,50.37-75.02-.02-.79-.06-1.58-.1-2.37,3.76,13.91,5.48,28.39,5.12,42.82Z" style="opacity:.2;"></path><path d="M346.49,359.68c-.02,.92-1.65,.7-1.74-.9-1.66-31.81-8.21-63.34-19.26-93.08,3.87,9.89,5.05,12.57,6.87,15.53,.75,1.08,2.65,2.49,2.29,2.25,5.11,11.33,5.44,16.33,7.53,32.67,.06-.43,.14-.9,.26-1.39h0c.18-.81,.45-1.67,.82-2.58,0,0-1.34,3.35-.98,7.07,.17,1.75,.74,3.5,1.92,4.01,2.28,1,2.18,2.19,1.58,11.4-.56,8.52-1.92,17.2,.7,25.02Z" style="opacity:.1;"></path><path d="M302.45,237.28c.38,11.36-1.8,22.97-7.4,32.76-5.6,9.78-14.8,17.57-25.53,20.09-10.72,2.52-33.54-11.71-40.93-20.13,6.05,10.66,29.59,27.58,41.33,25.24,11.74-2.35,21.68-11.33,27.03-22.38,5.36-11.05,7.1-23.32,5.49-35.57Z" style="opacity:.2;"></path></g><path d="M182.65,326.6c9.1-7.03,39.13-61.99,38.05-71.19-3.92-5.67-12.04-18.83-12.04-18.83-16.15,9.84-34.51,71.1-26.01,90.02Z" style="fill:#407BFF;"></path><path d="M182.65,326.6c9.1-7.03,39.48-68.79,39.89-68.79-3.92-5.67-13.87-21.23-13.87-21.23-16.15,9.84-34.51,71.1-26.01,90.02Z" style="fill:#fff; opacity:.4;"></path></g><g><path d="M247.8,194.92c-3.09,15.28-4.71,39.3-4.71,39.3l2.51,3.07-23.06,20.54s-5.54-6.96-13.87-21.23c3.38-4.29,3.53-4.25,3.66-5.27,.69-5.61-8.77-18.85-6.84-27.53,2.34-10.58,4.77-12.38,4.77-12.38,0,0,.22-.1,3.98-.81,.91-.18,2.24-.17,3.55-.39,5.11-.88,9.92-1.05,15.81-1.2,1.19-.03,2.38-.03,3.54,0,2.36,.05,4.59,.19,6.44,.35,2.68,.23,4.76,2.81,4.21,5.55Z" style="fill:#407BFF;"></path><g style="opacity:.3;"><path d="M229.49,218.6c-2.56,.02-5.28-1.03-6.95-2.46,1.17,2.15,3.89,4,7.03,3.87,3.14-.14,6.04-1.87,6.86-4.11-1.63,1.45-4.39,2.68-6.95,2.69Z"></path></g></g><g><path d="M257.57,210.58c-2.88,.15-8.75,2.78-11.16,4.36-2.87-1.24-6.78-5.32-6.78-5.32-1.41-3.39-2.42-11.03-.95-15.74,2.21-7.1,8.4-7.99,12.87-2.05l.06,.09c2.79,3.72,4.9,5.02,7.34,8.99-.92,3.41-1.22,8.13-1.38,9.67Z" style="fill:#407BFF;"></path><path d="M257.57,210.58c-2.88,.15-8.75,2.78-11.16,4.36-2.87-1.24-6.78-5.32-6.78-5.32-1.41-3.39-2.42-11.03-.95-15.74,2.21-7.1,8.4-7.99,12.87-2.05l.06,.09c2.79,3.72,4.9,5.02,7.34,8.99-.92,3.41-1.22,8.13-1.38,9.67Z" style="fill:#fff; opacity:.5;"></path></g><g><path d="M288.3,242.59c.19,.01,6.83,3.74,7.15,3.99,.63,.48-.06,2.12-1.68,1.74-1.62-.38-2.95-1.32-2.95-1.32,0,0-4.09,.68-6-.6-1.91-1.28-2.37-4.51-2.37-4.51l5.85,.7Z" style="opacity:.3;"></path><path d="M287.71,242.28c.19,.01,7.4,4.2,7.66,4.5,.26,.3-.05,1.47-1.67,1.09-1.62-.38-2.95-1.32-2.95-1.32,0,0-4.09,.68-6-.6-1.91-1.28-2.37-4.51-2.37-4.51l5.33,.84Z" style="fill:#b97964;"></path></g><path d="M221.74,202.13c3.93-.16,10.87-6.92,13.1-13.11-1.21-.03-.6-.03-1.85,0-5.42,.13-9.97,.28-14.64,.92-.6,.08-1.22,.18-1.84,.28-.87,.14-3.49,.61-4.19,.74,.16,1.18,1.06,3.11,2.12,5.36,.57,1.22,1.48,2.54,2.24,3.66,0,0,1.59,2.29,5.05,2.15Z" style="fill:#b97964;"></path><g><path d="M245.43,152.59c-.32-.43-.93-.49-1.47-.5-2.62-.07-5.24,0-7.85,.2,1.59-1.11,2.93-2.58,3.88-4.27,.16-.29,.32-.61,.28-.94-.04-.44-.43-.79-.86-.91-.43-.11-.89-.03-1.31,.11-1.28,.43-2.37,1.38-2.96,2.59-.6,1.21-.69,2.65-.25,3.93l.61-.02c1.41,1,2.86,2.02,4.52,2.51,1.66,.48,3.61,.34,4.91-.81,.54-.47,.94-1.31,.52-1.89Z" style="fill:#407BFF;"></path><path d="M237.73,144.54c-.97-2.02-3.03-3.44-5.25-3.76-2.22-.33-4.53,.38-6.3,1.76-1.4,1.1-2.53,2.95-1.89,4.62l6.64,5.15c2.03,.95,4.64,.28,6.09-1.44,1.44-1.72,1.68-4.3,.71-6.32Z" style="fill:#263238;"></path><path d="M224.2,145.4s4.73,.13,7.76,2.57c3.13,2.52,3.87,4.01,3.87,4.01l-1.44,.64-10.28-6.34s-.06-.41,.09-.88Z" style="fill:#407BFF;"></path><path d="M233.54,190.44s-3.6,1.77-8.03,5.59c-.92,.8-1.94,1.48-3.02,2.06-2.91,1.54-5.56,2.43-6.27,1.03-.16-.31-.28-.64-.37-.99-.61-2.35-.36-5.65,1.54-7.16,2.14-1.7,3.17-3.16,2.78-5.46-.2-1.31-.68-2.65-1.23-3.96l2.47-1.48,8.8-8.88c-1.01,5.45-1.3,16.05,3.33,19.27Z" style="fill:#b97964;"></path><path d="M220.23,186.01c2.42-1.44,5.08-3.93,4.76-6.78-.14-1.2-.4-2.34-.69-3.06l-4.92,6.51c.4,1.05,.55,1.74,.85,3.33Z" style="opacity:.2;"></path><path d="M231.91,161.16c-.83,9.04-.99,12.88-5.66,17.62-7.02,7.13-17.82,4.73-19.68-4.23-1.67-8.07-.04-21.5,8.84-25.3,8.75-3.74,17.32,2.87,16.49,11.91Z" style="fill:#b97964;"></path><path d="M212.2,149.34c-2.86,2.32-3.16,5.92-3.16,5.92,1.67-2.52,3.41-2.43,4.81-1.1,1.13,1.08,11.17-5.99,11.71,6.95,.2,4.73,10.18-1.46,10.18-4.68,0-8.75-14.88-14.09-23.54-7.09Z" style="fill:#263238;"></path><path d="M227.19,173.59c-2.43-.04-5.37-5.06-5.5-11.71-.05-2.43,.1-4.97-1.06-7.11-1.15-2.14-3.86-1.71-6.13-.85,1.81-3.4,7.71-2.94,9.52,.11,1.22,2.06,1.25,4.61,.98,6.99l-.02,.15c-.52,4.27,.21,8.6,2.21,12.42h0Z" style="fill:#263238;"></path><path d="M225.61,160.2c-.71,4.35,6.16,10.25,6.16,10.25,0,0,6.58-12.22,1.95-15.11-4.63-2.9-8.11,4.86-8.11,4.86Z" style="fill:#263238;"></path><path d="M220.2,164.1c-.04,.96-.56,1.74-1.16,1.75-.59,.01-1.04-.75-1-1.71,.04-.96,.56-1.74,1.16-1.75,.59-.01,1.04,.75,1,1.71Z" style="fill:#263238;"></path><path d="M211.28,164.07c-.04,.93-.56,1.69-1.15,1.7-.59,.01-1.04-.73-.99-1.66,.05-.93,.56-1.69,1.16-1.7,.59-.01,1.04,.73,.99,1.66Z" style="fill:#263238;"></path><path d="M222.08,160.77c-.12,.01-.23-.02-.32-.1-1.39-1.29-2.96-.84-2.98-.83-.23,.07-.47-.06-.52-.3-.05-.24,.09-.49,.33-.56,.08-.02,2.05-.59,3.78,1.01,.17,.16,.18,.44,0,.63-.08,.09-.19,.14-.3,.16Z" style="fill:#263238;"></path><path d="M208.28,159.54c-.09-.03-.17-.1-.21-.2-.08-.21,.02-.47,.22-.58,2.07-1.16,3.6-.28,3.66-.24,.18,.11,.23,.37,.1,.57-.13,.21-.38,.29-.56,.18-.06-.04-1.26-.7-2.9,.22-.11,.06-.22,.07-.32,.04Z" style="fill:#263238;"></path><path d="M213.7,163.63s-1.41,3.39-3.01,5.5c-.28,.37-.11,.91,.33,1.07,1.12,.41,2.42,.04,2.42,.04l.26-6.6Z" style="fill:#a24e3f;"></path><path d="M219.54,162.43l-2.08-.49s1.13,1.55,2.08,.49Z" style="fill:#263238;"></path><path d="M210.5,162.44l-2.08-.49s1.13,1.55,2.08,.49Z" style="fill:#263238;"></path><path d="M234.65,168.53c-1.07,1.85-2.8,3.02-4.4,3.42-2.39,.6-3.63-3.25-2.81-5.65,.74-2.16,3.09-3.59,5.42-3.12,2.3,.46,3.01,3.22,1.79,5.35Z" style="fill:#b97964;"></path><path d="M229.59,168.3h-.02c-.14,0-.24-.13-.23-.27,.06-.93,.5-1.81,1.2-2.42s1.62-.94,2.56-.87c.14,0,.24,.13,.23,.27,0,.14-.12,.25-.27,.23-.79-.05-1.59,.22-2.19,.75s-.97,1.28-1.03,2.08c0,.13-.12,.23-.25,.23Z" style="opacity:.2;"></path><path d="M216.33,173.22c-.26,0-.53-.03-.83-.09-.14-.03-.22-.16-.19-.29,.03-.14,.17-.22,.29-.19,2.45,.5,3.24-1.58,3.27-1.67,.05-.13,.19-.19,.32-.15,.13,.05,.2,.19,.15,.32,0,.02-.79,2.08-3.02,2.08Z" style="fill:#263238;"></path><circle cx="231.8" cy="171.1" r="1.34" style="fill:#407BFF;"></circle></g></g><g id="freepik--Balcony--inject-105"><g><g><path d="M360.74,431.43l22.53-1.96,.18-53.93c7.53,5.16,12.7,13.65,13.83,22.71,4.51,.33,8.82,2.75,11.45,6.42,2.64,3.67,3.54,8.53,2.42,12.9,3.68,1.43,5.65,5.86,4.94,9.75-.7,3.89-3.62,7.12-7.11,8.98-1.8,.97-3.88,1.71-5,3.42-.9,1.36-1.01,3.07-1.36,4.67-1.45,6.59-7.66,11.6-14.36,12.45-6.7,.84-13.56-2.11-18.24-6.97s-7.31-11.45-8.21-18.14" style="fill:#407BFF;"></path><path d="M404.83,393.65s.24-7.01,9.75-4.11c0,0-1.77,8.14-9.75,4.11Z" style="fill:#407BFF;"></path><path d="M404.5,406.68s4.04-5.74,10.41,1.89c0,0-5.94,5.85-10.41-1.89Z" style="fill:#407BFF;"></path><path d="M416.49,417.23s-2.39-6.6,7.52-7.45c0,0,1.39,8.22-7.52,7.45Z" style="fill:#407BFF;"></path><path d="M407.41,439.12s6.65-2.23,7.26,7.7c0,0-8.25,1.19-7.26-7.7Z" style="fill:#407BFF;"></path><path d="M404.91,406.73s-2.93-6.38,6.87-8.05c0,0,2.07,8.07-6.87,8.05Z" style="fill:#407BFF;"></path><path d="M390.89,434.47s6.95-.96,5.72,8.91c0,0-8.33-.36-5.72-8.91Z" style="opacity:.3;"></path><path d="M389.66,411.91s1.67-6.82,10.39-2.03c0,0-3.4,7.61-10.39,2.03Z" style="opacity:.3;"></path><path d="M392.8,429.63s3.73-2.97,6.42,3.22c0,0-4.98,2.68-6.42-3.22Z" style="opacity:.3;"></path><path d="M382.28,444.15s4.01,2.58-.99,7.12c0,0-4.13-3.86,.99-7.12Z" style="opacity:.3;"></path><path d="M389.88,406.26s-1.8-4.41,4.9-5.26c0,0,1.17,5.54-4.9,5.26Z" style="opacity:.3;"></path><path d="M396.02,406.32s-.16-3.57,4.78-2.48c0,0-.57,4.2-4.78,2.48Z" style="opacity:.3;"></path></g><g><g><g><path d="M136.76,307.95s-1.21,5.58,4.86,14.81h3.4v-14.81h-8.26Z" style="fill:#263238;"></path><path d="M153.27,307.95s1.21,5.58-4.86,14.81h-3.4v-14.81h8.26Z" style="fill:#263238;"></path></g><g><path d="M153.27,415.39s1.21-5.58-4.86-14.81h-3.4v14.81h8.26Z" style="fill:#263238;"></path><path d="M136.76,415.39s-1.21-5.58,4.86-14.81h3.4v14.81h-8.26Z" style="fill:#263238;"></path></g><g><path d="M141.86,322.3s-5.08,2.86-5.08,13.01v55.96s1.19,8.36,5.08,10.4h3.49v-79.36h-3.49Z" style="fill:#263238;"></path><path d="M148.17,322.3s5.08,2.86,5.08,13.01v55.96s-1.19,8.36-5.08,10.4h-3.49v-79.36h3.49Z" style="fill:#263238;"></path></g></g><g style="opacity:.4;"><g><path d="M136.76,307.95s-1.21,5.58,4.86,14.81h3.4v-14.81h-8.26Z" style="fill:#fff;"></path><path d="M153.27,307.95s1.21,5.58-4.86,14.81h-3.4v-14.81h8.26Z" style="fill:#fff;"></path></g><g><path d="M153.27,415.39s1.21-5.58-4.86-14.81h-3.4v14.81h8.26Z" style="fill:#fff;"></path><path d="M136.76,415.39s-1.21-5.58,4.86-14.81h3.4v14.81h-8.26Z" style="fill:#fff;"></path></g><g><path d="M141.86,322.3s-5.08,2.86-5.08,13.01v55.96s1.19,8.36,5.08,10.4h3.49v-79.36h-3.49Z" style="fill:#fff;"></path><path d="M148.17,322.3s5.08,2.86,5.08,13.01v55.96s-1.19,8.36-5.08,10.4h-3.49v-79.36h3.49Z" style="fill:#fff;"></path></g></g></g><rect x="136.66" y="307.95" width="16.71" height="1.33" style="opacity:.3;"></rect><g><g><path d="M126.71,201.28s.82,6.21-7.99,5.05c0,0,.37-7.43,7.99-5.05Z" style="fill:#407BFF;"></path><path d="M123.44,208.43s2.69,4.03-3.81,6.23c0,0-2.29-5.28,3.81-6.23Z" style="fill:#407BFF;"></path><path d="M124.16,193.58s-4.14,7.76-13.25-.75c0,0,6.49-8.19,13.25,.75Z" style="fill:#407BFF;"></path><path d="M112.55,158.6s2.57,8.42-9.9,8.85c0,0-1.21-10.38,9.9-8.85Z" style="fill:#407BFF;"></path><path d="M118.86,186.92s-5.05,3.47-7.95-4.71c0,0,6.63-2.99,7.95,4.71Z" style="fill:#407BFF;"></path><path d="M107.05,155.62s-2.34,5.66-9.23,.38c0,0,3.94-6.11,9.23-.38Z" style="fill:#407BFF;"></path><path d="M113.97,161.43s4.68,3.95-2.44,8.91c0,0-4.63-5.61,2.44-8.91Z" style="fill:#407BFF;"></path><path d="M115.87,132.9s-8.79-.4-5.02-12.29c0,0,10.19,2.34,5.02,12.29Z" style="fill:#407BFF;"></path><path d="M120.53,128.72s-4.55-4.11,2.74-8.83c0,0,4.44,5.76-2.74,8.83Z" style="fill:#407BFF;"></path><path d="M112.73,133.3s-5.29,3.09-7.58-5.29c0,0,6.84-2.48,7.58,5.29Z" style="fill:#407BFF;"></path><path d="M144.29,117.35s-8.79-.4-5.02-12.29c0,0,10.19,2.34,5.02,12.29Z" style="fill:#407BFF;"></path><path d="M148.94,113.17s-4.55-4.11,2.74-8.83c0,0,4.44,5.76-2.74,8.83Z" style="fill:#407BFF;"></path><path d="M141.14,117.75s-5.29,3.09-7.58-5.29c0,0,6.84-2.48,7.58,5.29Z" style="fill:#407BFF;"></path><path d="M173.59,109.81s-8.79-.4-5.02-12.29c0,0,10.19,2.34,5.02,12.29Z" style="fill:#407BFF;"></path><path d="M179.7,101.22s-4.55-4.11,2.74-8.83c0,0,4.44,5.76-2.74,8.83Z" style="fill:#407BFF;"></path><path d="M170.44,110.21s-5.29,3.09-7.58-5.29c0,0,6.84-2.48,7.58,5.29Z" style="fill:#407BFF;"></path><path d="M193.79,107.21c-10.41-5.84-25.02-2.46-31.8,7.36-5.52-3.88-12.93-4.91-19.3-2.68-6.37,2.23-11.52,7.66-13.42,14.13-7.67-2.88-16.82,1.67-20.65,8.9-3.83,7.24-3.01,16.28,.47,23.69,3.48,7.41,9.33,13.45,15.47,18.86-5.02,5.49-7.06,13.56-5.25,20.78,1.81,7.22,7.42,13.37,14.44,15.84,0,0,10.19-36.51,20.02-52.17s40.02-54.72,40.02-54.72Z" style="fill:#407BFF;"></path><g><path d="M138.96,162s-6.01,1.17-5.42-7.49c0,0,7.27-.09,5.42,7.49Z" style="opacity:.3;"></path><path d="M138.01,164.54s.09,3.43-4.64,2.3c0,0,.62-4.03,4.64-2.3Z" style="opacity:.3;"></path><path d="M134.03,162.63s-2.62,2.22-4.7-2.18c0,0,3.53-2.04,4.7,2.18Z" style="opacity:.3;"></path></g><g><path d="M157.66,136.76s-4.79-3.82,2.19-8.98c0,0,4.79,5.48-2.19,8.98Z" style="opacity:.3;"></path><path d="M133.75,139.67s-4.9-.34-2.64-6.93c0,0,5.66,1.44,2.64,6.93Z" style="opacity:.3;"></path><path d="M131.54,140.7s-.96,2.78-4.41,.44c0,0,1.71-3.04,4.41-.44Z" style="opacity:.3;"></path><path d="M155.11,137.69s-2.55,2.3-4.76-2.04c0,0,3.47-2.14,4.76,2.04Z" style="opacity:.3;"></path><path d="M153.98,133.42s-3.39-.55-1.39-4.99c0,0,3.84,1.37,1.39,4.99Z" style="opacity:.3;"></path></g><g><path d="M181.92,117.76s-4.78-.34-2.58-6.93c0,0,5.51,1.44,2.58,6.93Z" style="opacity:.3;"></path><path d="M179.77,118.79s-.94,2.78-4.3,.44c0,0,1.67-3.04,4.3-.44Z" style="opacity:.3;"></path></g><g><path d="M130.54,194.59s-3.78,2.95-6.55-3.42c0,0,5.06-2.62,6.55,3.42Z" style="opacity:.3;"></path><path d="M129.63,196.79s1.16,2.69-2.9,3.21c0,0-.8-3.38,2.9-3.21Z" style="opacity:.3;"></path></g></g><g><path d="M386.01,276.96s-2.43,5.16,5.53,6.6c0,0,1.74-6.55-5.53-6.6Z" style="fill:#407BFF;"></path><path d="M386.87,284.07s-3.45,2.75,1.58,6.46c0,0,3.44-3.94-1.58-6.46Z" style="fill:#407BFF;"></path><path d="M390.35,270.99s1.44,7.88,11.7,3.02c0,0-3.36-8.9-11.7-3.02Z" style="fill:#407BFF;"></path><path d="M410.12,243.87s-4.56,6.59,6.13,10.42c0,0,3.93-8.67-6.13-10.42Z" style="fill:#407BFF;"></path><path d="M396.79,266.68s3.41,4.41,8.2-1.88c0,0-4.93-4.43-8.2,1.88Z" style="fill:#407BFF;"></path><path d="M415.71,242.81s.46,5.56,7.9,2.88c0,0-1.72-6.39-7.9-2.88Z" style="fill:#407BFF;"></path><path d="M408.09,245.93s-5.16,2.13-.35,8.41c0,0,5.57-3.58,.35-8.41Z" style="fill:#407BFF;"></path><path d="M414.35,220.66s7.74,2.09,7.76-9.27c0,0-9.48-.79-7.76,9.27Z" style="fill:#407BFF;"></path><path d="M411.47,215.75s5.08-2.3,.07-8.41c0,0-5.45,3.77-.07,8.41Z" style="fill:#407BFF;"></path><path d="M416.97,221.88s3.73,4.14,8.04-2.48c0,0-5.24-4.05-8.04,2.48Z" style="fill:#407BFF;"></path><path d="M394.02,199.31s7.74,2.09,7.76-9.27c0,0-9.48-.79-7.76,9.27Z" style="fill:#407BFF;"></path><path d="M391.14,194.4s5.08-2.3,.07-8.41c0,0-5.45,3.77-.07,8.41Z" style="fill:#407BFF;"></path><path d="M396.63,200.53s3.73,4.14,8.04-2.48c0,0-5.24-4.05-8.04,2.48Z" style="fill:#407BFF;"></path><path d="M370.7,184.66s7.74,2.09,7.76-9.27c0,0-9.48-.79-7.76,9.27Z" style="fill:#407BFF;"></path><path d="M367.77,175.51s5.08-2.3,.07-8.41c0,0-5.45,3.77-.07,8.41Z" style="fill:#407BFF;"></path><path d="M373.31,185.87s3.73,4.14,8.04-2.48c0,0-5.24-4.05-8.04,2.48Z" style="fill:#407BFF;"></path><path d="M353.9,176.8c10.65-2.18,22.38,4.8,25.54,15.2,5.86-1.84,12.58-.68,17.48,3.02,4.9,3.7,7.87,9.83,7.72,15.97,7.45-.37,14.13,6.1,15.44,13.44,1.32,7.34-1.9,14.95-6.97,20.42-5.07,5.46-11.81,9.08-18.64,12.07,2.83,6.15,2.37,13.72-1.21,19.48-3.57,5.76-10.14,9.54-16.91,9.73,0,0,1.28-34.49-2.91-50.79-4.18-16.3-19.55-58.54-19.55-58.54Z" style="fill:#407BFF;"></path><g><path d="M386.27,239.5s4.89,2.68,6.77-4.99c0,0-6.28-2.1-6.77,4.99Z" style="opacity:.3;"></path><path d="M386.39,241.97s-1.03,2.95,3.39,3.28c0,0,.58-3.67-3.39-3.28Z" style="opacity:.3;"></path><path d="M390.37,241.42s1.66,2.65,4.68-.59c0,0-2.5-2.74-4.68,.59Z" style="opacity:.3;"></path></g><g><path d="M377.04,212.44s5.21-1.98,.59-8.39c0,0-5.67,3.42-.59,8.39Z" style="opacity:.3;"></path><path d="M396.97,221.59s4.35,1.06,4.21-5.28c0,0-5.3-.32-4.21,5.28Z" style="opacity:.3;"></path><path d="M398.6,223.09s.06,2.67,3.7,1.61c0,0-.64-3.11-3.7-1.61Z" style="opacity:.3;"></path><path d="M379,213.95s1.58,2.7,4.69-.45c0,0-2.42-2.82-4.69,.45Z" style="opacity:.3;"></path><path d="M381.16,210.56s3.09,.46,2.59-3.94c0,0-3.71,.12-2.59,3.94Z" style="opacity:.3;"></path></g><g><path d="M361.27,189.23s4.24,1.03,4.15-5.3c0,0-5.18-.28-4.15,5.3Z" style="opacity:.3;"></path><path d="M362.85,190.72s.04,2.67,3.6,1.58c0,0-.61-3.1-3.6-1.58Z" style="opacity:.3;"></path></g><g><path d="M384.54,270.1s2.46,3.6,6.63-1.15c0,0-3.66-3.68-6.63,1.15Z" style="opacity:.3;"></path><path d="M384.72,272.26s-1.75,2.01,1.62,3.58c0,0,1.63-2.71-1.62-3.58Z" style="opacity:.3;"></path></g></g><g><path d="M316.75,96.7s-4.06-7.81,8.12-10.5c0,0,3.08,9.99-8.12,10.5Z" style="fill:#407BFF;"></path><path d="M322.7,98.63s1.28-5.99,9.01-2.05c0,0-2.77,6.73-9.01,2.05Z" style="fill:#407BFF;"></path><path d="M314.83,94.18s-5.32-3.03,.78-9.21c0,0,5.57,4.67-.78,9.21Z" style="fill:#407BFF;"></path><path d="M275.85,71.01s-4.06-7.81,8.12-10.5c0,0,3.08,9.99-8.12,10.5Z" style="fill:#407BFF;"></path><path d="M290.75,60.14s1.28-5.99,9.01-2.05c0,0-2.77,6.73-9.01,2.05Z" style="fill:#407BFF;"></path><path d="M273.93,68.49s-5.32-3.03,.78-9.21c0,0,5.57,4.67-.78,9.21Z" style="fill:#407BFF;"></path><path d="M331.71,133.17c3.2-6.79,3.54-17.39-3.09-20.92,2.18-6.44-1.39-14.27-7.68-16.84-2.68-1.1-5.9-1.45-7.77-3.66-2.02-2.4-1.61-5.91-1.85-9.04-.55-7.21-5.5-13.9-12.24-16.52-6.73-2.63-14.91-1.06-20.19,3.88-5.52-7.62-15.4-11.84-24.72-10.56l77.54,73.66Z" style="fill:#407BFF;"></path><g><path d="M296.77,88.95s.28-6.12,8.56-3.49c0,0-1.63,7.09-8.56,3.49Z" style="opacity:.3;"></path><path d="M285.33,77.6s-2.6-4.17,4.07-6.2c0,0,2.15,5.43-4.07,6.2Z" style="opacity:.3;"></path><path d="M283.2,76.42s-2.81,.85-2.94-3.31c0,0,3.47-.39,2.94,3.31Z" style="opacity:.3;"></path><path d="M294.52,87.42s-3.36-.72-1.13-5.05c0,0,3.77,1.56,1.13,5.05Z" style="opacity:.3;"></path><path d="M297.32,84.01s-1.54-3.07,3.23-4.05c0,0,1.14,3.91-3.23,4.05Z" style="opacity:.3;"></path></g><g><path d="M317.63,107.05s-2.6-4.17,4.07-6.2c0,0,2.15,5.43-4.07,6.2Z" style="opacity:.3;"></path><path d="M315.5,105.86s-2.81,.85-2.94-3.31c0,0,3.47-.39,2.94,3.31Z" style="opacity:.3;"></path></g></g><g><path d="M344.35,149.74c-44.32-68.76-90.04-92.55-94.23-94.54-2.06,1.3-45.06,22.3-93.1,94.54-52.39,78.79-39.25,276.78-39.25,276.78l268.22,3.28s9.62-200.53-41.64-280.06Zm34.34,269l-253.67-3.1s-12.43-187.25,37.12-261.76c45.43-68.32,86.1-88.18,88.05-89.41,3.96,1.89,47.2,24.38,89.12,89.41,48.48,75.22,39.38,264.86,39.38,264.86Z" style="fill:#263238;"></path><path d="M339.31,153.88c48.48,75.22,39.38,264.86,39.38,264.86l5.84,11.04,1.46,.02s9.62-200.53-41.64-280.06c-44.32-68.76-90.04-92.55-94.23-94.54l.08,9.27c3.96,1.89,47.2,24.38,89.12,89.41Z" style="opacity:.3;"></path><path d="M344.35,149.74c-44.32-68.76-90.04-92.55-94.23-94.54-2.06,1.3-45.06,22.3-93.1,94.54-52.39,78.79-39.25,276.78-39.25,276.78l268.22,3.28s9.62-200.53-41.64-280.06Zm34.34,269l-253.67-3.1s-12.43-187.25,37.12-261.76c45.43-68.32,86.1-88.18,88.05-89.41,3.96,1.89,47.2,24.38,89.12,89.41,48.48,75.22,39.38,264.86,39.38,264.86Z" style="fill:#fff; opacity:.5;"></path></g></g><g><g><path d="M350.59,470.62c-67.15,2.82-135.05,2.85-203.71,0l-.21-13.26,203.71-.38,.21,13.64Z" style="fill:#263238;"></path><path d="M350.59,470.62c-67.15,2.82-135.05,2.85-203.71,0l-.21-13.26,203.71-.38,.21,13.64Z" style="fill:#fff; opacity:.1;"></path></g><path d="M365.41,456.77c-76.93,3.23-154.71,3.27-233.37,0v-15.46l233.37-.17v15.63Z" style="fill:#263238;"></path><path d="M365.41,456.77c-76.93,3.23-154.71,3.27-233.37,0v-15.46l233.37-.17v15.63Z" style="fill:#fff; opacity:.2;"></path></g><path d="M386.68,440.64c-89.12,4.07-179.23,4.11-270.35,0v-18.59H386.68v18.59Z" style="fill:#263238;"></path><path d="M386.68,440.64c-89.12,4.07-179.23,4.11-270.35,0v-18.59H386.68v18.59Z" style="fill:#fff; opacity:.3;"></path><g><g><g><path d="M344.35,307.95s-1.21,5.58,4.86,14.81h3.4v-14.81h-8.26Z" style="fill:#263238;"></path><path d="M360.86,307.95s1.21,5.58-4.86,14.81h-3.4v-14.81h8.26Z" style="fill:#263238;"></path></g><g><path d="M360.86,415.39s1.21-5.58-4.86-14.81h-3.4v14.81h8.26Z" style="fill:#263238;"></path><path d="M344.35,415.39s-1.21-5.58,4.86-14.81h3.4v14.81h-8.26Z" style="fill:#263238;"></path></g><g><path d="M349.45,322.3s-5.08,2.86-5.08,13.01v55.96s1.19,8.36,5.08,10.4h3.49v-79.36h-3.49Z" style="fill:#263238;"></path><path d="M355.77,322.3s5.08,2.86,5.08,13.01v55.96s-1.19,8.36-5.08,10.4h-3.49v-79.36h3.49Z" style="fill:#263238;"></path></g></g><g style="opacity:.4;"><g><path d="M344.35,307.95s-1.21,5.58,4.86,14.81h3.4v-14.81h-8.26Z" style="fill:#fff;"></path><path d="M360.86,307.95s1.21,5.58-4.86,14.81h-3.4v-14.81h8.26Z" style="fill:#fff;"></path></g><g><path d="M360.86,415.39s1.21-5.58-4.86-14.81h-3.4v14.81h8.26Z" style="fill:#fff;"></path><path d="M344.35,415.39s-1.21-5.58,4.86-14.81h3.4v14.81h-8.26Z" style="fill:#fff;"></path></g><g><path d="M349.45,322.3s-5.08,2.86-5.08,13.01v55.96s1.19,8.36,5.08,10.4h3.49v-79.36h-3.49Z" style="fill:#fff;"></path><path d="M355.77,322.3s5.08,2.86,5.08,13.01v55.96s-1.19,8.36-5.08,10.4h-3.49v-79.36h3.49Z" style="fill:#fff;"></path></g></g></g><g><g><g><path d="M178.28,307.95s-1.21,5.58,4.86,14.81h3.4v-14.81h-8.26Z" style="fill:#263238;"></path><path d="M194.79,307.95s1.21,5.58-4.86,14.81h-3.4v-14.81h8.26Z" style="fill:#263238;"></path></g><g><path d="M194.79,415.39s1.21-5.58-4.86-14.81h-3.4v14.81h8.26Z" style="fill:#263238;"></path><path d="M178.28,415.39s-1.21-5.58,4.86-14.81h3.4v14.81h-8.26Z" style="fill:#263238;"></path></g><g><path d="M183.38,322.3s-5.08,2.86-5.08,13.01v55.96s1.19,8.36,5.08,10.4h3.49v-79.36h-3.49Z" style="fill:#263238;"></path><path d="M189.69,322.3s5.08,2.86,5.08,13.01v55.96s-1.19,8.36-5.08,10.4h-3.49v-79.36h3.49Z" style="fill:#263238;"></path></g></g><g style="opacity:.4;"><g><path d="M178.28,307.95s-1.21,5.58,4.86,14.81h3.4v-14.81h-8.26Z" style="fill:#fff;"></path><path d="M194.79,307.95s1.21,5.58-4.86,14.81h-3.4v-14.81h8.26Z" style="fill:#fff;"></path></g><g><path d="M194.79,415.39s1.21-5.58-4.86-14.81h-3.4v14.81h8.26Z" style="fill:#fff;"></path><path d="M178.28,415.39s-1.21-5.58,4.86-14.81h3.4v14.81h-8.26Z" style="fill:#fff;"></path></g><g><path d="M183.38,322.3s-5.08,2.86-5.08,13.01v55.96s1.19,8.36,5.08,10.4h3.49v-79.36h-3.49Z" style="fill:#fff;"></path><path d="M189.69,322.3s5.08,2.86,5.08,13.01v55.96s-1.19,8.36-5.08,10.4h-3.49v-79.36h3.49Z" style="fill:#fff;"></path></g></g></g><g><polygon points="390.81 307.95 118.72 307.95 113.53 302.38 118.72 296.81 390.81 296.81 393.1 301.86 390.81 307.95" style="fill:#263238;"></polygon><polygon points="390.81 307.95 118.72 307.95 113.53 302.38 118.72 296.81 390.81 296.81 393.1 301.86 390.81 307.95" style="fill:#fff; opacity:.4;"></polygon></g><g><g><path d="M118.72,296.81c3.16-4.96,4.83-8.22,10.93-7.43,.86-8.56,8.47-14.99,17.52-16.4,9.05-1.41,18.79,3.48,22.55,11.33,8.33-4.3,20.07-1.14,24.7,6.65,4.92-2.71,12.97,1.19,15.79,5.85-33.18,.6-59.8,.63-91.49,0" style="fill:#407BFF;"></path><path d="M131.39,296.17c.35,4.75,.69,9.51,1.04,14.26,.08,1.15,.67,2.65,2.32,2.65,1.35,0,2.09-1.09,2.44-2,1.04-2.72,1.49-5.55,1.35-8.36-.04-.75-.07-1.61,.71-2.13,.99-.66,2.59-.37,3.95-.27,3.46,.25,7.04-1.22,8.4-3.46,5.23,2.6,12.62,2.86,18.21,.65,2.86,1.67,5.96,3.36,9.64,3.79s8.05-.91,8.87-3.45c.82,2.27,2.39,4.41,4.55,6.2,.91,.75,2.53,1.48,3.59,.83,.55-.34,.64-.91,.69-1.43,.19-2.07,.39-4.13,.58-6.2,2.65,1.91,7.77,1.65,10-.51l-4.71-2.71-71.63,2.14Z" style="fill:#407BFF;"></path></g><path d="M132.94,291.63s-8.78-.6-4.73-12.4c0,0,10.13,2.57,4.73,12.4Z" style="fill:#407BFF;"></path><path d="M134.92,280.21s-4.45-4.21,2.94-8.76c0,0,4.3,5.86-2.94,8.76Z" style="fill:#407BFF;"></path><path d="M179.55,281.54s-1.79-5.86,6.89-6.16c0,0,.84,7.23-6.89,6.16Z" style="fill:#407BFF;"></path><g><path d="M144.86,286.97s-1.79-5.86,6.89-6.16c0,0,.84,7.23-6.89,6.16Z" style="opacity:.3;"></path><path d="M142.23,286.29s-3.41,.44-2.77-4.38c0,0,4.07,.2,2.77,4.38Z" style="opacity:.3;"></path><path d="M143.72,282.14s-2.48-2.38,1.68-4.9c0,0,2.39,3.3-1.68,4.9Z" style="opacity:.3;"></path></g><path d="M176.68,294.48s-3.38-.59-1.33-5.01c0,0,3.83,1.41,1.33,5.01Z" style="opacity:.3;"></path><path d="M180.45,294.03s-2.59-4.08,3.95-6.13c0,0,2.15,5.32-3.95,6.13Z" style="opacity:.3;"></path><path d="M129.79,291.96s-5.36,2.97-7.46-5.46c0,0,6.89-2.33,7.46,5.46Z" style="fill:#407BFF;"></path><path d="M168.44,286.84s-3.47-8.09,8.87-9.88c0,0,2.34,10.19-8.87,9.88Z" style="fill:#407BFF;"></path><path d="M166.35,283.79s-5.09-3.41,1.45-9.13c0,0,5.22,5.07-1.45,9.13Z" style="fill:#407BFF;"></path></g><g><g><g><path d="M219.8,307.95s-1.21,5.58,4.86,14.81h3.4v-14.81h-8.26Z" style="fill:#263238;"></path><path d="M236.31,307.95s1.21,5.58-4.86,14.81h-3.4v-14.81h8.26Z" style="fill:#263238;"></path></g><g><path d="M236.31,415.39s1.21-5.58-4.86-14.81h-3.4v14.81h8.26Z" style="fill:#263238;"></path><path d="M219.8,415.39s-1.21-5.58,4.86-14.81h3.4v14.81h-8.26Z" style="fill:#263238;"></path></g><g><path d="M224.9,322.3s-5.08,2.86-5.08,13.01v55.96s1.19,8.36,5.08,10.4h3.49v-79.36h-3.49Z" style="fill:#263238;"></path><path d="M231.21,322.3s5.08,2.86,5.08,13.01v55.96s-1.19,8.36-5.08,10.4h-3.49v-79.36h3.49Z" style="fill:#263238;"></path></g></g><g style="opacity:.4;"><g><path d="M219.8,307.95s-1.21,5.58,4.86,14.81h3.4v-14.81h-8.26Z" style="fill:#fff;"></path><path d="M236.31,307.95s1.21,5.58-4.86,14.81h-3.4v-14.81h8.26Z" style="fill:#fff;"></path></g><g><path d="M236.31,415.39s1.21-5.58-4.86-14.81h-3.4v14.81h8.26Z" style="fill:#fff;"></path><path d="M219.8,415.39s-1.21-5.58,4.86-14.81h3.4v14.81h-8.26Z" style="fill:#fff;"></path></g><g><path d="M224.9,322.3s-5.08,2.86-5.08,13.01v55.96s1.19,8.36,5.08,10.4h3.49v-79.36h-3.49Z" style="fill:#fff;"></path><path d="M231.21,322.3s5.08,2.86,5.08,13.01v55.96s-1.19,8.36-5.08,10.4h-3.49v-79.36h3.49Z" style="fill:#fff;"></path></g></g></g><g><g><g><path d="M261.32,307.95s-1.21,5.58,4.86,14.81h3.4v-14.81h-8.26Z" style="fill:#263238;"></path><path d="M277.83,307.95s1.21,5.58-4.86,14.81h-3.4v-14.81h8.26Z" style="fill:#263238;"></path></g><g><path d="M277.83,415.39s1.21-5.58-4.86-14.81h-3.4v14.81h8.26Z" style="fill:#263238;"></path><path d="M261.32,415.39s-1.21-5.58,4.86-14.81h3.4v14.81h-8.26Z" style="fill:#263238;"></path></g><g><path d="M266.41,322.3s-5.08,2.86-5.08,13.01v55.96s1.19,8.36,5.08,10.4h3.49v-79.36h-3.49Z" style="fill:#263238;"></path><path d="M272.73,322.3s5.08,2.86,5.08,13.01v55.96s-1.19,8.36-5.08,10.4h-3.49v-79.36h3.49Z" style="fill:#263238;"></path></g></g><g style="opacity:.4;"><g><path d="M261.32,307.95s-1.21,5.58,4.86,14.81h3.4v-14.81h-8.26Z" style="fill:#fff;"></path><path d="M277.83,307.95s1.21,5.58-4.86,14.81h-3.4v-14.81h8.26Z" style="fill:#fff;"></path></g><g><path d="M277.83,415.39s1.21-5.58-4.86-14.81h-3.4v14.81h8.26Z" style="fill:#fff;"></path><path d="M261.32,415.39s-1.21-5.58,4.86-14.81h3.4v14.81h-8.26Z" style="fill:#fff;"></path></g><g><path d="M266.41,322.3s-5.08,2.86-5.08,13.01v55.96s1.19,8.36,5.08,10.4h3.49v-79.36h-3.49Z" style="fill:#fff;"></path><path d="M272.73,322.3s5.08,2.86,5.08,13.01v55.96s-1.19,8.36-5.08,10.4h-3.49v-79.36h3.49Z" style="fill:#fff;"></path></g></g></g><g><g><g><path d="M302.84,307.95s-1.21,5.58,4.86,14.81h3.4v-14.81h-8.26Z" style="fill:#263238;"></path><path d="M319.35,307.95s1.21,5.58-4.86,14.81h-3.4v-14.81h8.26Z" style="fill:#263238;"></path></g><g><path d="M319.35,415.39s1.21-5.58-4.86-14.81h-3.4v14.81h8.26Z" style="fill:#263238;"></path><path d="M302.84,415.39s-1.21-5.58,4.86-14.81h3.4v14.81h-8.26Z" style="fill:#263238;"></path></g><g><path d="M307.93,322.3s-5.08,2.86-5.08,13.01v55.96s1.19,8.36,5.08,10.4h3.49v-79.36h-3.49Z" style="fill:#263238;"></path><path d="M314.25,322.3s5.08,2.86,5.08,13.01v55.96s-1.19,8.36-5.08,10.4h-3.49v-79.36h3.49Z" style="fill:#263238;"></path></g></g><g style="opacity:.4;"><g><path d="M302.84,307.95s-1.21,5.58,4.86,14.81h3.4v-14.81h-8.26Z" style="fill:#fff;"></path><path d="M319.35,307.95s1.21,5.58-4.86,14.81h-3.4v-14.81h8.26Z" style="fill:#fff;"></path></g><g><path d="M319.35,415.39s1.21-5.58-4.86-14.81h-3.4v14.81h8.26Z" style="fill:#fff;"></path><path d="M302.84,415.39s-1.21-5.58,4.86-14.81h3.4v14.81h-8.26Z" style="fill:#fff;"></path></g><g><path d="M307.93,322.3s-5.08,2.86-5.08,13.01v55.96s1.19,8.36,5.08,10.4h3.49v-79.36h-3.49Z" style="fill:#fff;"></path><path d="M314.25,322.3s5.08,2.86,5.08,13.01v55.96s-1.19,8.36-5.08,10.4h-3.49v-79.36h3.49Z" style="fill:#fff;"></path></g></g></g><path d="M178.18,309.28h16.71c0-.52-.03-1-.1-1.33h-16.52c-.08,.4-.1,.85-.09,1.33Z" style="opacity:.3;"></path><path d="M219.7,309.28h16.71c0-.52-.03-1-.1-1.33h-16.52c-.08,.4-.1,.85-.09,1.33Z" style="opacity:.3;"></path><path d="M261.22,309.28h16.71c0-.52-.03-1-.1-1.33h-16.52c-.08,.4-.1,.85-.09,1.33Z" style="opacity:.3;"></path><path d="M302.74,309.28h16.71c0-.52-.03-1-.1-1.33h-16.52c-.08,.4-.1,.85-.09,1.33Z" style="opacity:.3;"></path><path d="M344.26,309.28h16.71c0-.52-.03-1-.1-1.33h-16.52c-.08,.4-.1,.85-.09,1.33Z" style="opacity:.3;"></path><g><rect x="105.91" y="415.39" width="295.29" height="6.65" rx="3.33" ry="3.33" style="fill:#263238;"></rect><rect x="105.91" y="415.39" width="295.29" height="6.65" rx="3.33" ry="3.33" style="fill:#fff; opacity:.4;"></rect></g><g><g><g><path d="M385.19,415.77c-3.16-4.96-4.83-8.22-10.93-7.43-.86-8.56-8.47-14.99-17.52-16.4-9.05-1.41-18.79,3.48-22.55,11.33-8.33-4.3-20.07-1.14-24.7,6.65-4.92-2.71-12.97,1.19-15.79,5.85,33.18,.6,59.8,.63,91.49,0" style="fill:#407BFF;"></path><path d="M372.52,415.13c-.35,4.75-.69,9.51-1.04,14.26-.08,1.15-.67,2.65-2.32,2.65-1.35,0-2.09-1.09-2.44-2-1.04-2.72-1.49-5.55-1.35-8.36,.04-.75,.07-1.61-.71-2.13-.99-.66-2.59-.37-3.95-.27-3.46,.25-7.04-1.22-8.4-3.46-5.23,2.6-12.62,2.86-18.21,.65-2.86,1.67-5.96,3.36-9.64,3.79s-8.05-.91-8.87-3.45c-.82,2.27-2.39,4.41-4.55,6.2-.91,.75-2.53,1.48-3.59,.83-.55-.34-.64-.91-.69-1.43-.19-2.07-.39-4.13-.58-6.2-2.65,1.91-7.77,1.65-10-.51l4.71-2.71,71.63,2.14Z" style="fill:#407BFF;"></path></g><path d="M370.96,410.6s8.78-.6,4.73-12.4c0,0-10.13,2.57-4.73,12.4Z" style="fill:#407BFF;"></path><path d="M368.98,399.17s4.45-4.21-2.94-8.76c0,0-4.3,5.86,2.94,8.76Z" style="fill:#407BFF;"></path><path d="M324.35,400.5s1.79-5.86-6.89-6.16c0,0-.84,7.23,6.89,6.16Z" style="fill:#407BFF;"></path><g><path d="M359.05,405.94s1.79-5.86-6.89-6.16c0,0-.84,7.23,6.89,6.16Z" style="opacity:.3;"></path><path d="M361.67,405.25s3.41,.44,2.77-4.38c0,0-4.07,.2-2.77,4.38Z" style="opacity:.3;"></path><path d="M360.18,401.1s2.48-2.38-1.68-4.9c0,0-2.39,3.3,1.68,4.9Z" style="opacity:.3;"></path></g><path d="M327.23,413.44s3.38-.59,1.33-5.01c0,0-3.83,1.41-1.33,5.01Z" style="opacity:.3;"></path><path d="M323.45,413s2.59-4.08-3.95-6.13c0,0-2.15,5.32,3.95,6.13Z" style="opacity:.3;"></path><path d="M374.12,410.92s5.36,2.97,7.46-5.46c0,0-6.89-2.33-7.46,5.46Z" style="fill:#407BFF;"></path><path d="M335.47,405.81s3.47-8.09-8.87-9.88c0,0-2.34,10.19,8.87,9.88Z" style="fill:#407BFF;"></path><path d="M337.56,402.76s5.09-3.41-1.45-9.13c0,0-5.22,5.07,1.45,9.13Z" style="fill:#407BFF;"></path></g><g style="opacity:.3;"><path d="M385.19,415.77c-1.85-2.9-3.2-5.22-5.22-6.49,.62-.89,1.18-2.12,1.6-3.82,0,0-2.88-.97-5.07,.45,.46-1.8,.38-4.28-.8-7.72,0,0-2.47,.63-4.32,2.45-.54-.78-1.14-1.52-1.81-2.21,.9-1.4,2-4.62-3.53-8.02,0,0-1.5,2.05-1.24,4.33-2.42-1.38-5.17-2.35-8.06-2.8-6.36-.99-13.06,1.14-17.79,5.22-.48-1.05-1.36-2.23-2.85-3.53,0,0-2.74,2.67-1.7,5.68-1.31-1.47-3.66-2.78-7.81-3.38,0,0-.64,2.82,.37,5.44-6.89-.37-14.09,2.85-17.48,8.55-4.92-2.71-12.97,1.19-15.79,5.85,.88,.02,1.74,.03,2.61,.05,2.29,2.05,7.27,2.27,9.87,.4,.19,2.07,.39,4.13,.58,6.2,.05,.51,.13,1.09,.69,1.43,1.06,.65,2.68-.07,3.59-.83,2.16-1.79,3.73-3.93,4.55-6.2,.82,2.54,5.19,3.87,8.87,3.45,3.68-.42,6.78-2.11,9.64-3.79,5.29,2.09,12.21,1.96,17.37-.27,.37,0,.73,0,1.1,0,1.51,2.02,4.88,3.32,8.14,3.08,1.37-.1,2.96-.39,3.95,.27,.78,.52,.75,1.38,.71,2.13-.15,2.81,.31,5.64,1.35,8.36,.35,.91,1.09,1.99,2.44,2,1.65,0,2.23-1.5,2.32-2.65,.33-4.47,.65-8.93,.98-13.4,4.17-.06,8.4-.14,12.73-.22Z"></path><path d="M324.35,400.5s1.79-5.86-6.89-6.16c0,0-.84,7.23,6.89,6.16Z"></path></g></g></g></g></svg>
